<svg version="1.1" id="Layer_1" xmlns="http://www.w3.org/2000/svg" xmlns:xlink="http://www.w3.org/1999/xlink" x="0px" y="0px"
	 width="100%" viewBox="0 0 85 88" enable-background="new 0 0 85 88" xml:space="preserve">
<path fill="#000001" opacity="1.000000" stroke="none" 
	d="
M58.000000,89.000000 
	C38.666672,89.000000 19.833342,89.000000 1.000010,89.000000 
	C1.000007,59.666679 1.000007,30.333357 1.000003,1.000026 
	C29.333315,1.000017 57.666630,1.000017 85.999954,1.000009 
	C85.999969,30.333307 85.999969,59.666615 85.999985,88.999962 
	C76.833336,89.000000 67.666664,89.000000 58.000000,89.000000 
M25.453897,4.093733 
	C25.453897,8.318678 25.453897,12.543622 25.453897,16.999897 
	C29.338345,16.999897 32.987770,16.999868 36.637199,16.999903 
	C40.303123,16.999935 43.970531,16.932905 47.634663,17.013994 
	C55.393036,17.185694 62.937569,23.483074 63.981400,30.574425 
	C65.263245,39.282757 61.142368,46.039181 52.751099,48.976444 
	C51.140259,49.540295 49.521915,50.082710 47.329857,50.832413 
	C53.277115,60.918556 59.185352,70.423805 64.511772,80.244606 
	C66.434937,83.790520 69.123734,83.582207 71.539742,82.647041 
	C76.989182,80.537743 83.039688,73.114807 78.471092,65.960884 
	C75.775475,61.739838 73.040703,57.543797 70.323120,53.336781 
	C84.894676,37.039036 77.956902,11.695231 57.025368,4.977407 
	C46.882339,1.722076 36.464886,2.967329 25.453897,4.093733 
M6.617418,8.672265 
	C6.412642,9.450013 6.030294,10.227468 6.029016,11.005550 
	C5.995631,31.326355 5.947716,51.647457 6.033970,71.967949 
	C6.059928,78.083359 10.638494,82.778419 16.944475,83.016602 
	C23.926952,83.280334 30.929482,83.203796 37.918018,83.044586 
	C42.058365,82.950249 45.161995,79.274529 44.997189,75.175766 
	C44.834091,71.119545 41.541985,68.035988 37.266518,68.008583 
	C32.326553,67.976921 27.386230,68.001221 21.998173,68.001221 
	C21.998173,65.604004 21.998171,63.807201 21.998171,62.010403 
	C21.998188,44.687698 21.998512,27.364996 21.998079,10.042294 
	C21.997896,2.757069 19.988659,1.125729 13.105461,3.536050 
	C10.820724,4.336107 8.983246,6.413414 6.617418,8.672265 
z"/>
<path fill="#FF7E00" opacity="1.000000" stroke="none" 
	d="
M25.781727,3.765440 
	C36.464886,2.967329 46.882339,1.722076 57.025368,4.977407 
	C77.956902,11.695231 84.894676,37.039036 70.323334,53.336647 
	C73.040703,57.543797 75.775475,61.739838 78.471092,65.960884 
	C83.039688,73.114807 76.989182,80.537743 71.539742,82.647041 
	C69.123734,83.582207 66.434937,83.790520 64.511772,80.244606 
	C59.185352,70.423805 53.277115,60.918556 47.329857,50.832413 
	C49.521915,50.082710 51.140259,49.540295 52.751099,48.976444 
	C61.142368,46.039181 65.263245,39.282757 63.981400,30.574425 
	C62.937569,23.483074 55.393036,17.185694 47.634663,17.013994 
	C43.970531,16.932905 40.303123,16.999935 36.637199,16.999903 
	C32.987770,16.999868 29.338345,16.999897 25.453897,16.999897 
	C25.453897,12.543622 25.453897,8.318678 25.781727,3.765440 
z"/>
<path fill="#19D9FE" opacity="1.000000" stroke="none" 
	d="
M6.779353,8.289524 
	C8.983246,6.413414 10.820724,4.336107 13.105461,3.536050 
	C19.988659,1.125729 21.997896,2.757069 21.998079,10.042294 
	C21.998512,27.364996 21.998188,44.687698 21.998171,62.010403 
	C21.998171,63.807201 21.998173,65.604004 21.998173,68.001221 
	C27.386230,68.001221 32.326553,67.976921 37.266518,68.008583 
	C41.541985,68.035988 44.834091,71.119545 44.997189,75.175766 
	C45.161995,79.274529 42.058365,82.950249 37.918018,83.044586 
	C30.929482,83.203796 23.926952,83.280334 16.944475,83.016602 
	C10.638494,82.778419 6.059928,78.083359 6.033970,71.967949 
	C5.947716,51.647457 5.995631,31.326355 6.029016,11.005550 
	C6.030294,10.227468 6.412642,9.450013 6.779353,8.289524 
z"/>
</svg>